<svg width="800" height="800" xmlns="http://www.w3.org/2000/svg" xmlns:undefined="http://www.inkscape.org/namespaces/inkscape" xml:space="preserve" version="1.1">

 <g>
  <title>Layer 1</title>
  <path id="svg_1" fill="#333E48" d="m54.883,741.382c20.048,20.047 52.543,20.047 72.59,0c20.045,-20.044 20.046,-52.545 -0.002,-72.589l-104.207,-104.206c-40.088,40.088 -40.09,105.083 -0.001,145.175l31.62,31.62z"/>
  <path id="svg_2" fill="#2D3740" d="m100.351,660.503c-36.03,0 -65.239,29.208 -65.239,65.238c0,11.295 2.872,21.919 7.924,31.181l-6.879,0c-9.405,0 -17.03,7.626 -17.03,17.03l0,9.342c0,4.246 3.441,7.687 7.687,7.687l73.536,0c36.031,0 65.24,-29.21 65.24,-65.24s-29.207,-65.238 -65.239,-65.238z"/>
  <path id="svg_3" fill="#DADBDC" d="m98.549,754.921l-6.392,0c-9.405,0 -17.03,7.626 -17.03,17.03l0,9.342c0,4.246 3.441,7.687 7.687,7.687l33.103,0c0.014,-0.434 0.033,-0.867 0.033,-1.303c0.001,-13.632 -6.9,-25.652 -17.401,-32.756z"/>
  <path id="svg_4" fill="#2D3740" d="m287.526,660.503c36.03,0 65.239,29.208 65.239,65.238c0,11.295 -2.873,21.919 -7.924,31.181l6.88,0c9.403,0 17.029,7.626 17.029,17.03l0,9.342c0,4.246 -3.441,7.687 -7.687,7.687l-73.536,0c-36.031,0 -65.24,-29.21 -65.24,-65.24s29.209,-65.238 65.239,-65.238z"/>
  <path id="svg_5" fill="#DADBDC" d="m401.33,754.921l6.392,0c9.403,0 17.029,7.626 17.029,17.03l0,9.342c0,4.246 -3.441,7.687 -7.687,7.687l-33.104,0c-0.014,-0.434 -0.033,-0.867 -0.033,-1.303c0,-13.632 6.902,-25.652 17.403,-32.756z"/>
  <path id="svg_6" fill="#333E48" d="m134.091,790.98l119.493,0c26.551,0 48.28,-21.726 48.28,-48.278l0,-154.104c0,-59.661 -48.366,-108.026 -108.028,-108.026c-59.66,0 -108.026,48.364 -108.026,108.026l0,154.104c0,26.553 21.727,48.278 48.281,48.278z"/>
  <path id="svg_7" fill="#FFFFFF" d="m193.94,591.943c-31.849,0 -57.665,25.819 -57.665,57.665l0,141.374l115.33,0l0,-141.375c-0.001,-31.846 -25.818,-57.664 -57.665,-57.664z"/>
  <path id="svg_8" fill="#333E48" d="m265.165,304.141c10.706,-10.791 28.135,-10.863 38.928,-0.156c5.395,5.351 8.111,12.386 8.141,19.43l0.001,0.001l0.53,130.163l-69.475,0.283c-20.66,0.084 -37.475,-16.595 -37.559,-37.255l-0.214,-52.329l59.648,-60.137z"/>
  <path id="svg_9" fill="#FF9C9F" d="m291.867,440.637l-0.45,-110.622c-0.006,-1.23 -0.32,-3.61 -2.363,-5.636c-2.043,-2.025 -4.42,-2.319 -5.655,-2.314c-1.235,0.004 -3.608,0.32 -5.635,2.36l-53.947,54.387l0.18,44.236c0.04,9.851 8.086,17.832 17.937,17.791l49.933,-0.202z"/>
  <path id="svg_10" fill="#333E48" d="m125.457,304.712c-10.793,-10.705 -28.221,-10.633 -38.926,0.158c-5.352,5.395 -8.011,12.452 -7.984,19.495l-0.002,0.002l0.53,130.163l69.475,-0.284c20.66,-0.083 37.339,-16.899 37.255,-37.558l-0.213,-52.331l-60.135,-59.645z"/>
  <path id="svg_11" fill="#FF9C9F" d="m99.869,441.417l-0.45,-110.621c-0.004,-1.231 0.29,-3.612 2.317,-5.656c2.025,-2.041 4.4,-2.355 5.635,-2.361c1.235,-0.005 3.612,0.29 5.654,2.315l54.388,53.947l0.18,44.236c0.041,9.85 -7.941,17.896 -17.791,17.936l-49.933,0.204z"/>
  <path id="svg_12" fill="#333E48" d="m311.765,453.579c-0.262,-64.533 -52.789,-116.633 -117.32,-116.369c-64.308,0.26 -116.264,52.425 -116.364,116.652l-0.005,0l0,27.234l0.009,0c-0.001,0.319 -0.01,0.634 -0.009,0.953c0.263,64.533 52.789,116.632 117.32,116.37c64.533,-0.262 116.632,-52.789 116.369,-117.321l0,-27.234l-0.002,0c0,-0.096 0.003,-0.191 0.002,-0.285z"/>
  <path id="svg_13" fill="#FFFFFF" d="m284.051,428.719c-0.123,-30.048 -24.579,-54.307 -54.628,-54.184c-8.13,0.033 -15.83,1.859 -22.744,5.086l-0.042,-10.303c-0.03,-7.197 -5.887,-13.007 -13.081,-12.976c-7.196,0.027 -13.006,5.886 -12.977,13.079l0.042,10.305c-6.94,-3.17 -14.654,-4.934 -22.785,-4.901c-30.047,0.122 -54.306,24.579 -54.184,54.628l0.073,17.976c0.055,13.436 4.987,25.707 13.1,35.169l-0.001,0l51.135,59.789c6.057,7.955 15.639,13.075 26.408,13.031c10.768,-0.044 20.308,-5.24 26.301,-13.243l50.647,-60.207l-0.001,0c8.035,-9.525 12.867,-21.836 12.811,-35.273l-0.074,-17.976z"/>
  <path id="svg_14" fill="#FF9C9F" d="m191.837,496.564c-4.746,4.007 -10.553,6.795 -16.937,7.894l0,15.894c0,9.355 7.583,16.938 16.937,16.938s16.938,-7.583 16.938,-16.938l0,-15.894c-6.385,-1.098 -12.191,-3.886 -16.938,-7.894z"/>
  <g id="svg_15">
   <circle id="svg_16" fill="#0075C9" r="8.833" cy="437.717" cx="140.013"/>
   <circle id="svg_17" fill="#0075C9" r="8.833" cy="437.717" cx="251.657"/>
  </g>
  <path id="svg_18" fill="#333E48" d="m207.164,470.299c-5.639,5.898 -15.073,6.101 -20.963,0.46l-6.573,-6.292c-5.893,-5.643 -4.037,-10.288 4.122,-10.321l24.187,-0.099c8.159,-0.032 10.219,4.767 4.578,10.659l-5.351,5.593z"/>
  <path id="svg_19" fill="#2D3740" d="m165.592,635.776c0,-15.757 -12.774,-28.531 -28.531,-28.531c-15.757,0 -28.531,12.773 -28.531,28.531l0,121.146l-23.65,0c-9.406,0 -17.028,7.626 -17.028,17.03l0,9.342c0,4.246 3.44,7.687 7.686,7.687l73.026,0c9.403,0 17.028,-7.624 17.028,-17.03l0,-138.175l0,0z"/>
  <path id="svg_20" fill="#DADBDC" d="m108.53,725.742l0,31.178l-23.65,0c-9.406,0 -17.028,7.626 -17.028,17.03l0,9.342c0,4.246 3.44,7.687 7.686,7.687l73.026,0c9.403,0 17.028,-7.624 17.028,-17.03l0,-48.208l-57.062,0.001l0,0z"/>
  <path id="svg_21" fill="#2D3740" d="m222.286,635.776c0,-15.757 12.775,-28.531 28.531,-28.531s28.531,12.773 28.531,28.531l0,121.146l23.649,0c9.406,0 17.028,7.626 17.028,17.03l0,9.342c0,4.246 -3.44,7.687 -7.685,7.687l-73.026,0c-9.403,0 -17.028,-7.624 -17.028,-17.03l0,-138.175z"/>
  <path id="svg_22" fill="#DADBDC" d="m279.348,725.742l0,31.178l23.649,0c9.406,0 17.028,7.626 17.028,17.03l0,9.342c0,4.246 -3.44,7.687 -7.685,7.687l-73.026,0c-9.403,0 -17.028,-7.624 -17.028,-17.03l0,-48.208l57.062,0.001l0,0z"/>
  <path id="svg_23" fill="#1E252B" d="m246.659,356.613c14.811,8.139 27.724,19.818 37.34,33.775c1.525,2.212 4.015,3.469 6.603,3.469c0.788,0 1.585,-0.117 2.366,-0.358c3.349,-1.035 5.638,-4.124 5.652,-7.63l0.232,-57.043c0.01,-2.474 -0.581,-7.236 -4.643,-11.334c-4.06,-4.093 -8.819,-4.722 -11.359,-4.732c-4.249,0 -8.251,1.648 -11.269,4.64l-26.707,26.49c-1.795,1.781 -2.645,4.303 -2.294,6.807c0.351,2.506 1.863,4.698 4.079,5.916zm36.156,-27.849l-0.143,35.077c-5.877,-5.883 -12.331,-11.184 -19.24,-15.791l19.383,-19.286zm-177.561,61.625c9.616,-13.957 22.529,-25.637 37.34,-33.775c2.215,-1.219 3.727,-3.411 4.079,-5.914c0.352,-2.504 -0.499,-5.026 -2.294,-6.807l-26.709,-26.492c-3.017,-2.992 -7.019,-4.639 -11.333,-4.639c-2.474,0.011 -7.233,0.639 -11.295,4.734c-4.06,4.096 -4.651,8.858 -4.641,11.334l0.232,57.041c0.014,3.505 2.303,6.595 5.652,7.63c0.782,0.242 1.578,0.358 2.366,0.358c2.587,-0.001 5.078,-1.258 6.603,-3.47zm20.552,-42.33c-6.911,4.611 -13.37,9.917 -19.248,15.806l-0.181,-35.077l19.429,19.271zm232.048,400.372c2.588,-7.592 3.93,-15.614 3.93,-23.69c0,-16.698 -5.769,-33.036 -16.243,-46.003c-8.997,-11.138 -21.139,-19.427 -34.659,-23.77l0,-67.369c0,-15.258 -2.925,-30.068 -8.701,-44.083c11.621,-19.451 17.695,-41.638 17.602,-64.419l-0.001,-27.24l0.001,-0.308l-0.531,-130.165c-0.041,-9.496 -3.774,-18.406 -10.512,-25.09c-13.915,-13.803 -36.466,-13.712 -50.269,0.201l-33.954,34.232c-9.819,-2.389 -19.92,-3.583 -30.106,-3.535c-10.18,0.042 -20.274,1.312 -30.075,3.781l-34.233,-33.955c-13.915,-13.8 -36.464,-13.709 -50.265,0.204c-6.645,6.697 -10.303,15.57 -10.31,25c-0.001,0.06 -0.002,0.119 -0.002,0.179l0.53,130.131l0,26.565c0,0.096 0.001,0.191 0.005,0.287l-0.001,0.012c-0.003,0.231 -0.005,0.462 -0.004,0.688c0.091,22.388 6.129,44.169 17.501,63.274c-5.818,14.06 -8.766,28.922 -8.766,44.244l0,19.176l-48.857,-48.856c-3.132,-3.131 -8.209,-3.131 -11.341,0c-43.15,43.151 -43.151,113.363 0,156.516l9.518,9.517c-0.003,0.264 -0.017,0.526 -0.017,0.79c0,8.077 1.342,16.099 3.93,23.69c-11.356,2.373 -19.914,12.465 -19.914,24.518l0,9.343c0,8.66 7.046,15.706 15.706,15.706l334.249,0c8.66,0 15.706,-7.046 15.706,-15.706l0,-9.343c-0.001,-12.054 -8.559,-22.147 -19.917,-24.522zm-271.76,-268.422l0.009,-0.886c0.001,-0.13 -0.002,-0.261 -0.009,-0.391l0,-26.232l-0.529,-130.006c0.001,-0.053 0.001,-0.106 0.001,-0.158c-0.02,-5.212 1.989,-10.119 5.658,-13.817c7.573,-7.638 19.95,-7.688 27.586,-0.112l37.519,37.214c2.074,2.057 5.101,2.822 7.904,2.002c9.789,-2.872 19.965,-4.348 30.245,-4.39c10.304,-0.04 20.471,1.354 30.28,4.143c2.809,0.798 5.831,0.009 7.887,-2.067l37.213,-37.518c7.575,-7.636 19.951,-7.686 27.588,-0.111c3.697,3.668 5.747,8.559 5.77,13.77l0.53,130.188c0,0.094 -0.001,0.188 0,0.281l0,27.212c0.087,21.149 -5.906,41.68 -17.328,59.374c-1.482,2.294 -1.693,5.188 -0.559,7.675c5.964,13.083 8.988,27.018 8.988,41.421l0,154.104c0,2.085 -0.167,4.156 -0.486,6.2l-5.992,0l0,-113.129c0,-20.154 -16.396,-36.55 -36.55,-36.55c-4.331,0 -8.487,0.761 -12.347,2.151c-6.209,-5.724 -13.486,-10.266 -21.362,-13.236c-1.344,-0.508 -2.8,-0.645 -4.217,-0.395c-6.103,1.072 -12.335,1.627 -18.528,1.653c-6.48,0.051 -13.032,-0.526 -19.4,-1.644c-1.418,-0.249 -2.875,-0.111 -4.22,0.396c-7.866,2.971 -15.134,7.51 -21.336,13.228c-3.859,-1.39 -8.016,-2.152 -12.347,-2.152c-20.154,0 -36.55,16.396 -36.55,36.55l0,113.127l-6.195,0c-0.32,-2.044 -0.488,-4.115 -0.488,-6.2l0,-154.106c0,-14.457 3.044,-28.439 9.047,-41.556c1.138,-2.485 0.931,-5.378 -0.548,-7.677c-11.189,-17.391 -17.15,-37.567 -17.234,-58.356zm186.235,154.767l0,81.948l-41.024,0l0,-81.948c0,-11.31 9.201,-20.512 20.512,-20.512c11.311,0 20.512,9.202 20.512,20.512zm-241.275,69.437l-1.119,-1.121c-34.988,-34.99 -36.798,-90.784 -5.431,-127.926l54.29,54.289l0,25.581c-13.437,4.362 -25.503,12.621 -34.454,23.702c-6.099,7.547 -10.588,16.237 -13.286,25.475zm-2.907,77.749l0,-9.011c0,-4.969 4.043,-9.011 9.011,-9.011l3.766,0c5.776,4.557 9.726,10.936 11.272,18.021l-24.049,0l0,0.001zm34.174,-17.513c-3.005,-5.071 -6.954,-9.599 -11.716,-13.303c-4.224,-8.101 -6.473,-17.201 -6.473,-26.406c0,-23.387 13.834,-43.784 34.66,-52.624l0,69.586c0,2.381 0.159,4.75 0.458,7.098c-7.856,2.16 -14.18,8.054 -16.929,15.649zm96.252,8.502c0,4.968 -4.042,9.011 -9.009,9.011l-72.694,0l0,-9.011c0,-4.969 4.042,-9.011 9.009,-9.011l23.65,0c4.429,0 8.019,-3.589 8.019,-8.019l0,-23.16l41.024,0l0.001,40.19l0,0zm0,-56.228l-41.024,0l0,-81.948c0,-11.31 9.201,-20.512 20.512,-20.512s20.512,9.201 20.512,20.512l0,81.948zm58.377,65.239l-44.022,0c1.083,-2.798 1.683,-5.835 1.683,-9.011l0,-138.175c0,-9.808 -3.891,-18.719 -10.2,-25.289c3.396,-2.65 7.12,-4.868 11.069,-6.556c6.572,1.027 13.276,1.562 19.949,1.506c6.325,-0.025 12.688,-0.535 18.949,-1.515c3.957,1.688 7.688,3.91 11.09,6.565c-6.309,6.571 -10.2,15.482 -10.2,25.289l0,138.175c-0.001,3.176 0.6,6.213 1.682,9.011zm96.057,0l-72.694,0c-4.967,0 -9.009,-4.042 -9.009,-9.011l0,-40.189l41.024,0l0,23.16c0,4.43 3.59,8.019 8.019,8.019l23.65,0c4.968,0 9.009,4.042 9.009,9.011l0,9.01l0.001,0zm14.551,-17.513c-2.772,-7.66 -9.178,-13.59 -17.125,-15.705c0.294,-2.329 0.45,-4.679 0.45,-7.042l0,-69.674c20.94,8.792 34.863,29.247 34.863,52.713c0,9.205 -2.25,18.304 -6.473,26.406c-4.762,3.703 -8.71,8.231 -11.715,13.302zm34.174,17.513l-24.049,0c1.545,-7.085 5.497,-13.465 11.271,-18.021l3.767,0c4.969,0 9.011,4.042 9.011,9.011l0,9.01zm-199.008,-228.526c7.836,10.172 19.668,16.001 32.5,16.001l0.174,0c12.902,-0.052 24.748,-5.977 32.543,-16.264l50.501,-60.032c9.54,-11.31 14.761,-25.685 14.7,-40.476l-0.073,-17.976c-0.14,-34.281 -28.141,-62.17 -62.419,-62.17l-0.261,0c-5.03,0.021 -9.964,0.631 -14.759,1.82c-0.544,-11.119 -9.783,-20.012 -21.106,-20.012c-5.623,0.021 -10.9,2.231 -14.859,6.224c-3.736,3.767 -5.877,8.692 -6.088,13.959c-4.723,-1.131 -9.575,-1.7 -14.515,-1.7l-0.259,0c-16.674,0.067 -32.324,6.625 -44.066,18.464c-11.743,11.838 -18.173,27.542 -18.104,44.215l0.073,17.976c0.061,14.79 5.398,29.121 15.023,40.348l50.995,59.623zm-36.6,-150.87c8.726,-8.797 20.355,-13.669 32.745,-13.72l0.194,0c6.691,0 13.159,1.404 19.227,4.176c2.487,1.134 5.382,0.925 7.68,-0.557c2.298,-1.483 3.681,-4.034 3.67,-6.77l-0.042,-10.304c-0.005,-1.338 0.51,-2.598 1.453,-3.548c0.942,-0.951 2.197,-1.475 3.563,-1.481c2.748,0 4.993,2.239 5.005,4.989l0.042,10.303c0.011,2.735 1.416,5.276 3.725,6.74c2.311,1.464 5.207,1.651 7.685,0.495c6.103,-2.848 12.625,-4.306 19.385,-4.334l0.196,0c25.47,0 46.277,20.724 46.381,46.197l0.073,17.976c0.045,10.988 -3.834,21.668 -10.928,30.079l-50.647,60.207c-0.097,0.115 -0.191,0.235 -0.282,0.356c-4.749,6.342 -12.008,9.997 -19.916,10.03l-0.107,0c-7.863,0 -15.112,-3.598 -19.888,-9.87c-0.092,-0.12 -0.187,-0.238 -0.287,-0.354l-51.141,-59.796c-7.156,-8.347 -11.123,-18.994 -11.168,-29.981l-0.073,-17.976c-0.049,-12.391 4.73,-24.06 13.455,-32.857z"/>
  <g id="svg_24"/>
  <g id="svg_25"/>
  <g id="svg_26"/>
  <g id="svg_27"/>
  <g id="svg_28"/>
  <g id="svg_29"/>
  <g id="svg_30"/>
  <g id="svg_31"/>
  <g id="svg_32"/>
  <g id="svg_33"/>
  <g id="svg_34"/>
  <g id="svg_35"/>
  <g id="svg_36"/>
  <g id="svg_37"/>
  <g id="svg_38"/>
  <text font-weight="bold" transform="matrix(4.33996 0 0 5.23779 -1479.62 -489.589)" stroke="null" xml:space="preserve" text-anchor="start" font-family="'Dancing Script'" font-size="24" stroke-width="0" id="svg_39" y="218.37002" x="417.91677" fill="#000000">HuskyMusic</text>
  <g stroke="null">
   <path stroke="null" d="m661.125,467.9c0,-23.82222 0,-47.64445 0,-71.46667c0,-59.20132 -48.18898,-107.20001 -107.62502,-107.20001s-107.62502,47.99868 -107.62502,107.20001c0,23.82222 0,47.64445 0,71.46667c-2.64231,25.46739 -35.30053,18.80669 -35.87501,0c0,-23.82222 0,-47.64445 0,-71.46667c0,-78.94399 64.25213,-142.93334 143.50002,-142.93334c79.24789,0 143.50002,63.98935 143.50002,142.93334c0,23.82222 0,47.64445 0,71.46667c-2.64231,25.46739 -35.30053,18.80669 -35.87501,0l0,0zm-188.34378,-53.6l17.9375,0c4.95075,0 8.96875,3.99332 8.96875,8.93333l0,89.33334c0,4.94001 -4.018,8.93333 -8.96875,8.93333l-17.9375,0c-4.95075,0 -8.96875,-3.99332 -8.96875,-8.93333l0,-89.33334c0,-4.94001 4.018,-8.93333 8.96875,-8.93333l0,0zm143.50002,0l17.9375,0c4.9596,0 8.96875,3.99332 8.96875,8.93333l0,89.33334c0,4.94001 -4.00915,8.93333 -8.96875,8.93333l-17.9375,0c-4.9596,0 -8.96875,-3.99332 -8.96875,-8.93333l0,-89.33334c0,-4.94001 4.00915,-8.93333 8.96875,-8.93333l0,0z"  id="svg_41"/>
  </g>
  <path id="svg_42" d="m903.46501,222.46792l0.38197,0l0.11803,-0.54067l0.11803,0.54067l0.38197,0l-0.30902,0.33415l0.11804,0.54067l-0.30902,-0.33416l-0.30902,0.33416l0.11804,-0.54067l-0.30902,-0.33415z" stroke-width="0" stroke="null" fill="#000000"/>
 </g>
</svg>