<?xml version="1.0" encoding="utf-8"?>
<svg id="Layer_1" style="enable-background:new 0 0 566.93 170.04" viewBox="0 0 566.93 170.04" version="1.1" y="0px" x="0px" width="567" height="171" fill="#ffffff" xmlns="http://www.w3.org/2000/svg" xmlns:bx="https://boxy-svg.com">
  <defs>
    <style bx:fonts="Arsenal">@import url(https://fonts.googleapis.com/css2?family=Arsenal%3Aital%2Cwght%400%2C400%3B0%2C700%3B1%2C400%3B1%2C700&amp;display=swap);</style>
  </defs>
  <path d="m87.996 1.277c-46.249 0-83.743 37.493-83.743 83.742 0 46.254 37.494 83.745 83.743 83.745 46.251 0 83.743-37.491 83.743-83.745 0-46.246-37.49-83.738-83.744-83.738zm38.404 120.78c-1.504 2.467-4.718 3.24-7.177 1.737-19.665-12.019-44.417-14.734-73.567-8.075-2.809 0.644-5.609-1.117-6.249-3.925-0.643-2.809 1.11-5.609 3.926-6.249 31.9-7.293 59.263-4.154 81.336 9.334 2.46 1.51 3.24 4.72 1.73 7.18zm10.25-22.799c-1.894 3.073-5.912 4.037-8.981 2.15-22.505-13.834-56.822-17.841-83.447-9.759-3.453 1.043-7.1-0.903-8.148-4.35-1.04-3.453 0.907-7.093 4.354-8.143 30.413-9.228 68.221-4.758 94.071 11.127 3.07 1.89 4.04 5.91 2.15 8.976zm0.88-23.744c-26.994-16.031-71.52-17.505-97.289-9.684-4.138 1.255-8.514-1.081-9.768-5.219-1.254-4.14 1.08-8.513 5.221-9.771 29.581-8.98 78.756-7.245 109.83 11.202 3.722 2.209 4.943 7.016 2.737 10.733-2.2 3.722-7.02 4.949-10.73 2.739z"/>
  <path d="m553.52 83.671c-5.124 0-9.111-4.115-9.111-9.112s4.039-9.159 9.159-9.159c5.124 0 9.111 4.114 9.111 9.107 0 4.997-4.04 9.164-9.16 9.164zm0.05-17.365c-4.667 0-8.198 3.71-8.198 8.253 0 4.541 3.506 8.201 8.151 8.201 4.666 0 8.201-3.707 8.201-8.253 0-4.541-3.51-8.201-8.15-8.201zm2.02 9.138l2.577 3.608h-2.173l-2.32-3.31h-1.995v3.31h-1.819v-9.564h4.265c2.222 0 3.683 1.137 3.683 3.051 0.01 1.568-0.9 2.526-2.21 2.905zm-1.54-4.315h-2.372v3.025h2.372c1.184 0 1.891-0.579 1.891-1.514 0-0.984-0.71-1.511-1.89-1.511z"/>
  <text style="white-space: pre; fill: rgb(51, 51, 51); font-family: Arial, sans-serif; font-size: 11.2px;" x="431.346" y="191.346"> </text>
  <text style="font-family: Arsenal; font-size: 5.04189px; letter-spacing: 0.1px; line-height: 8.74545px; text-transform: capitalize; word-spacing: -0.5px; white-space: pre; mix-blend-mode: darken;" transform="matrix(11.852666, 0.024459, -0.529288, 17.453745, -2276.729248, -1091.962524)" x="210.323" y="69.016">HuskyMusic</text>
</svg>